Coordinates
version=1
nRows=14
nColumns=24
inDegrees=yes

Units are S.I. units (second, meters, Newtons, ...)
Angles are in degrees.

endheader
time	pelvis_tilt	pelvis_list	pelvis_rotation	pelvis_tx	pelvis_ty	pelvis_tz	hip_flexion_r	hip_adduction_r	hip_rotation_r	knee_angle_r	ankle_angle_r	subtalar_angle_r	mtp_angle_r	hip_flexion_l	hip_adduction_l	hip_rotation_l	knee_angle_l	ankle_angle_l	subtalar_angle_l	mtp_angle_l	lumbar_extension	lumbar_bending	lumbar_rotation
      0.68700000	     -1.23169893	     -3.00901710	      2.25649732	     -0.48207851	      0.99070838	      0.30748593	     12.84068701	      7.15326453	     -4.50386784	    -19.27338535	      8.80352298	     -9.19459453	     -0.00036703	     22.62224563	     -2.96127830	     -0.14679600	    -71.93457681	     -6.16413094	     -7.82065691	      0.77137468	     -1.29679033	      6.79576297	      3.56273899
      0.69116667	     -1.14603604	     -2.91570111	      2.26848265	     -0.47666312	      0.99177853	      0.30758675	     12.13102465	      7.08892029	     -4.49372084	    -18.76401783	      8.84649130	     -9.08171401	     -0.01529534	     23.12944692	     -2.79915463	     -0.09478692	    -71.63416957	     -5.62773865	     -8.08342223	      0.69616729	     -1.39270941	      6.69148208	      3.64212357
      0.69533333	     -1.10074754	     -2.82302641	      2.26056092	     -0.47127537	      0.99271540	      0.30771339	     11.48295728	      7.02561862	     -4.47209592	    -18.29039311	      8.90882525	     -8.98703235	     -0.02453033	     23.66665113	     -2.64452142	     -0.06672350	    -71.28477103	     -5.06492532	     -8.36342656	      0.65028953	     -1.44425507	      6.57247093	      3.71274133
      0.69950000	     -0.99517503	     -2.71717163	      2.24869640	     -0.46583902	      0.99374114	      0.30782850	     10.74870364	      6.95060005	     -4.44051165	    -17.77676769	      8.94439663	     -8.86296432	     -0.03913651	     24.10065060	     -2.48370406	     -0.05654084	    -70.84236522	     -4.53660711	     -8.62102103	      0.58325118	     -1.55756520	      6.45476661	      3.82246863
      0.70366667	     -0.96715235	     -2.61328439	      2.21934988	     -0.46047231	      0.99459310	      0.30794088	     10.12626822	      6.87510397	     -4.37670912	    -17.31494459	      9.01009006	     -8.76851136	     -0.04678363	     24.60868341	     -2.31599693	     -0.04657832	    -70.35374547	     -3.97502742	     -8.89810974	      0.54715716	     -1.60550054	      6.35459875	      3.89972489
      0.70783333	     -0.83637011	     -2.49755542	      2.19141613	     -0.45501660	      0.99558244	      0.30806804	      9.36023846	      6.78919949	     -4.33566874	    -16.79211888	      9.03985391	     -8.62550118	     -0.06691175	     24.96231332	     -2.15876314	     -0.06736218	    -69.76984046	     -3.48101635	     -9.14278551	      0.45450332	     -1.75303848	      6.21972549	      4.06379459
      0.71200000	     -0.82346099	     -2.38818778	      2.13247212	     -0.44966330	      0.99629881	      0.30821187	      8.76978564	      6.70590735	     -4.25912801	    -16.35915414	      9.11060017	     -8.52453651	     -0.07571459	     25.44199413	     -2.00566838	     -0.10248837	    -69.16064041	     -2.91668329	     -9.41694118	      0.41091913	     -1.78383633	      6.09572033	      4.14717008
      0.71616667	     -0.71198386	     -2.27531640	      2.08102264	     -0.44421411	      0.99714994	      0.30835602	      8.03850589	      6.61937471	     -4.20782986	    -15.86283538	      9.15079293	     -8.37622971	     -0.10024672	     25.77160420	     -1.86552273	     -0.15423522	    -68.45821522	     -2.42450060	     -9.65654027	      0.29296164	     -1.90549983	      5.97046261	      4.34408107
      0.72033333	     -0.66071844	     -2.15865544	      1.99173307	     -0.43882860	      0.99782705	      0.30852391	      7.41034380	      6.52456536	     -4.13079252	    -15.43900156	      9.20882414	     -8.25110448	     -0.11451853	     26.15062420	     -1.73122464	     -0.24049450	    -67.71476387	     -1.87627272	     -9.92358740	      0.21698384	     -1.96714878	      5.84958657	      4.45928553
      0.72450000	     -0.63818727	     -2.04637110	      1.91648482	     -0.43347011	      0.99840745	      0.30868043	      6.81245518	      6.43327316	     -4.04511794	    -15.00667516	      9.27517092	     -8.11589416	     -0.12559906	     26.54846880	     -1.59214473	     -0.30424513	    -66.92072469	     -1.36405455	    -10.17010851	      0.14989447	     -2.02157032	      5.71389642	      4.58255017
      0.72866667	     -0.52240086	     -1.92790065	      1.84095996	     -0.42803641	      0.99909967	      0.30882781	      6.09649932	      6.33093572	     -4.00281683	    -14.54540139	      9.33196005	     -7.93091329	     -0.14734712	     26.80297707	     -1.46153786	     -0.38896570	    -66.03945856	     -0.92266932	    -10.39741326	      0.00832836	     -2.15187605	      5.58446827	      4.80367995
      0.73283333	     -0.50831179	     -1.82949159	      1.72650492	     -0.42268175	      0.99953761	      0.30901000	      5.53371452	      6.24691388	     -3.91622008	    -14.16186073	      9.39311734	     -7.78600045	     -0.15906978	     27.16080104	     -1.36147949	     -0.49717919	    -65.13566791	     -0.41586476	    -10.63483893	     -0.08336921	     -2.17702814	      5.48714921	      4.92211255
      0.73700000	     -0.43504019	     -1.72296105	      1.64512005	     -0.41728764	      1.00001845	      0.30916933	      4.88143281	      6.15173999	     -3.87602609	    -13.72450979	      9.46473489	     -7.58615743	     -0.17692502	     27.43000067	     -1.24793458	     -0.58524773	    -64.16438809	     -0.00488798	    -10.85099071	     -0.24538787	     -2.27581882	      5.35270325	      5.12938481
      0.74116667	     -0.44773337	     -1.63530336	      1.51900126	     -0.41196037	      1.00028628	      0.30934872	      4.36452201	      6.07187634	     -3.78702768	    -13.36602978	      9.52929772	     -7.42733165	     -0.18588099	     27.77781610	     -1.16372423	     -0.69790596	    -63.15938864	      0.44976544	    -11.07268149	     -0.35483880	     -2.28057091	      5.27134104	      5.25016216
